<?xml version="1.0" standalone="no"?><!DOCTYPE svg PUBLIC "-//W3C//DTD SVG 1.1//EN" "http://www.w3.org/Graphics/SVG/1.1/DTD/svg11.dtd"><svg t="1766931994597" class="icon" viewBox="0 0 1024 1024" version="1.1" xmlns="http://www.w3.org/2000/svg" p-id="13340" xmlns:xlink="http://www.w3.org/1999/xlink" width="200" height="200"><path d="M512 1024a512 512 0 1 1 512-512 512 512 0 0 1-512 512z m192-704a64 64 0 0 0-64-64h-288a64 64 0 0 0-64 64v352c0.384 38.24 67.2 75.648 96 96l96 64c70.176 42.144 64.448 34.656 64-96h96a64 64 0 0 0 64-64v-96h-64v96h-96v-192c-2.592-56.48-7.808-79.36-64-128l-42.656-32H640v128h64v-128z m151.36 173.856l-79.36-70.912a30.464 30.464 0 0 0-39.68 0V480H576v64h160.32v56.256a30.464 30.464 0 0 0 39.68 0l79.36-70.912a23.296 23.296 0 0 0 0-35.488z" p-id="13341" fill="#BA9762"></path></svg>